<svg width="24" height="25" viewBox="0 0 24 25" fill="none" xmlns="http://www.w3.org/2000/svg">
    <path fill-rule="evenodd" clip-rule="evenodd"
          d="M5.5 17.4982V7.49817H18.5V17.4982H5.5ZM4 6.99817C4 6.44588 4.44772 5.99817 5 5.99817H19C19.5523 5.99817 20 6.44588 20 6.99817V17.9982C20 18.5505 19.5523 18.9982 19 18.9982H5C4.44772 18.9982 4 18.5505 4 17.9982V6.99817ZM8.5 11.4982C9.32843 11.4982 10 10.8266 10 9.99817C10 9.16974 9.32843 8.49817 8.5 8.49817C7.67157 8.49817 7 9.16974 7 9.99817C7 10.8266 7.67157 11.4982 8.5 11.4982ZM7 12.4982H17V13.9982H7V12.4982ZM17 14.4982H7V15.9982H17V14.4982Z"
          fill="black"/>
</svg>
